<svg width="46" height="44" viewBox="0 0 46 44" fill="none" xmlns="http://www.w3.org/2000/svg">
<path d="M33.9913 31.3404H33.8072V31.5825C34.1676 31.5727 34.5174 31.5641 34.8674 31.5641C35.0452 31.5641 35.2205 31.5688 35.3931 31.5735C35.5606 31.578 35.7256 31.5825 35.8879 31.5825V31.3404H35.7233C35.4512 31.3404 35.237 31.3404 35.237 31.0327V24.6047C35.237 24.53 35.2178 24.4734 35.1583 24.4734C35.1369 24.4734 35.0879 24.4998 35.0206 24.536L35.0204 24.5361C34.9975 24.5485 34.9724 24.562 34.9455 24.5759C34.7408 24.6884 34.3319 24.8555 33.943 24.9763V25.1254C33.9558 25.1289 33.9683 25.1323 33.9805 25.1357C34.3229 25.2299 34.4587 25.2672 34.4587 25.8517V31.0327C34.4587 31.3404 34.2645 31.3404 33.9913 31.3404Z" fill="#1A1919"/>
<path d="M33.4559 26.7716H33.2133C33.0282 25.6841 32.2208 25.2462 31.1321 25.2462C30.0122 25.2462 28.3884 25.9622 28.3884 28.1951C28.3884 30.0752 29.7896 31.4245 31.2872 31.4245C32.2493 31.4245 33.0486 30.7916 33.2428 29.814L33.4666 29.8696L33.2428 31.2285C32.8343 31.4707 31.7348 31.7223 31.0921 31.7223C28.817 31.7223 27.3775 30.3171 27.3775 28.2238C27.3775 26.3159 29.1575 24.9479 31.064 24.9479C31.8516 24.9479 32.6101 25.1905 33.3592 25.4419L33.4559 26.7716Z" fill="#1A1919"/>
<path d="M7.28065 31.3404H7.09633V31.5824C7.45595 31.5727 7.80636 31.564 8.15656 31.564C8.3334 31.564 8.50818 31.5688 8.68062 31.5734C8.84848 31.578 9.01417 31.5824 9.17732 31.5824V31.3404H9.01263C8.73996 31.3404 8.5256 31.3404 8.5256 31.0326V27.461C8.5256 27.3858 8.50556 27.3299 8.45788 27.3299C8.40839 27.3299 8.35089 27.3398 8.28238 27.3772C8.24391 27.4052 7.69877 27.5807 7.24159 27.7122V27.8607C7.25687 27.8686 7.27178 27.8762 7.2863 27.8837C7.6141 28.0516 7.74766 28.1201 7.74766 28.5115V31.0326C7.74766 31.3404 7.55292 31.3404 7.28065 31.3404Z" fill="#1A1919"/>
<path d="M7.66029 25.4325C7.66029 25.6743 7.88348 25.8976 8.13691 25.8976C8.39916 25.8976 8.61373 25.6841 8.61373 25.4325C8.61373 25.1811 8.38935 24.985 8.13691 24.985C7.89409 24.985 7.66029 25.1995 7.66029 25.4325Z" fill="#1A1919"/>
<path fill-rule="evenodd" clip-rule="evenodd" d="M0.121721 25.3312C0.530225 25.3355 0.928319 25.3396 0.928319 26.1205V30.6333C0.900472 31.2569 0.625163 31.2835 0.0588232 31.3381L0.0341797 31.3404V31.5825C0.471332 31.5727 0.900071 31.5641 1.33742 31.5641C1.56128 31.5641 1.78532 31.5685 2.01392 31.573C2.25199 31.5777 2.49499 31.5825 2.74785 31.5825C6.19138 31.5825 6.75555 29.2664 6.75555 28.3444C6.75555 26.6969 5.38359 25.0882 2.86485 25.0882C2.45397 25.0882 2.09708 25.0939 1.79049 25.0988C1.55965 25.1026 1.35733 25.1058 1.18196 25.1058C0.801902 25.1058 0.413232 25.1058 0.0341797 25.0882V25.33C0.063319 25.3306 0.0925464 25.3309 0.121721 25.3312ZM2.89349 31.2841C2.41707 31.2841 1.88155 31.2007 1.88155 30.484V25.4234C1.92879 25.4207 1.97665 25.4167 2.02915 25.4124C2.1717 25.4007 2.34856 25.3862 2.64066 25.3862C4.51769 25.3862 5.6847 26.642 5.6847 28.3818C5.6847 29.7679 4.99511 31.2841 2.89349 31.2841Z" fill="#1A1919"/>
<path d="M10.1017 28.5675C10.1017 28.2239 9.99432 28.1309 9.53794 27.9538V27.7772L9.59881 27.7582C9.99443 27.635 10.3767 27.516 10.8213 27.3299C10.8508 27.3299 10.879 27.3485 10.879 27.4228V28.0278C11.4344 27.647 11.911 27.3299 12.5637 27.3299C13.3894 27.3299 13.6811 27.9069 13.6811 28.6326V31.0326C13.6811 31.3404 13.8956 31.3404 14.1677 31.3404H14.3432V31.5824C14.1735 31.5824 14.0041 31.5779 13.8337 31.5733C13.6613 31.5687 13.4878 31.564 13.3118 31.564C12.9614 31.564 12.611 31.5727 12.2608 31.5824V31.3404H12.4363C12.7088 31.3404 12.9025 31.3404 12.9025 31.0326V28.624C12.9025 28.093 12.5637 27.8327 12.0086 27.8327C11.6971 27.8327 11.201 28.0742 10.879 28.2798V31.0326C10.879 31.3404 11.094 31.3404 11.3665 31.3404H11.5412V31.5824C11.3724 31.5824 11.2036 31.5779 11.0334 31.5733L11.0333 31.5733H11.0332C10.8604 31.5687 10.6863 31.564 10.5096 31.564C10.1602 31.564 9.8096 31.5727 9.4598 31.5824V31.3404H9.6353C9.90737 31.3404 10.1017 31.3404 10.1017 31.0326V28.5675Z" fill="#1A1919"/>
<path fill-rule="evenodd" clip-rule="evenodd" d="M15.0825 29.5544C15.0627 29.2378 15.0627 29.0985 15.0825 29.0147H17.8156L17.9036 28.9586C17.9126 28.9026 17.9126 28.8474 17.9126 28.7909C17.9036 27.8044 17.0567 27.3299 16.268 27.3299C15.5878 27.3299 14.3042 27.8699 14.3042 29.6937C14.3042 30.2887 14.6153 31.7223 16.1624 31.7223C16.9594 31.7223 17.5135 31.2383 17.9611 30.6708L17.8252 30.5405C17.466 30.8841 17.0475 31.1633 16.5118 31.1633C15.7344 31.1633 15.1398 30.438 15.0825 29.5544ZM17.076 28.4835C17.076 28.5957 17.0475 28.7168 16.8049 28.7168H15.1116C15.2282 28.0462 15.6369 27.6283 16.2297 27.6283C16.7746 27.6283 17.076 28.0098 17.076 28.4835Z" fill="#1A1919"/>
<path d="M18.1368 31.3404H18.3996C18.6709 31.3404 18.8656 31.3404 18.8656 31.0326V28.4187C18.8656 28.1913 18.6411 28.1082 18.4748 28.0466C18.4306 28.0303 18.3906 28.0154 18.36 27.9998V27.8607C18.743 27.705 19.0327 27.5628 19.2322 27.4649C19.4026 27.3813 19.5072 27.3299 19.5482 27.3299C19.6051 27.3299 19.6344 27.3579 19.6344 27.4514V28.2888H19.6548C19.8972 27.9261 20.3065 27.3299 20.8995 27.3299C21.1425 27.3299 21.4535 27.488 21.4535 27.8231C21.4535 28.0742 21.2696 28.2986 20.9973 28.2986C20.8505 28.2986 20.775 28.2458 20.6972 28.1914C20.6146 28.1337 20.5295 28.0742 20.354 28.0742C20.1889 28.0742 19.6442 28.2888 19.6442 28.8474V31.0326C19.6442 31.3404 19.8385 31.3404 20.111 31.3404H20.6551V31.5824C20.5902 31.5813 20.5271 31.5801 20.4657 31.5789C20.0212 31.5707 19.6622 31.564 19.2944 31.564C18.8955 31.564 18.4868 31.5727 18.1368 31.5824V31.3404Z" fill="#1A1919"/>
<path d="M23.1077 31.4245C22.3963 31.4245 22.008 30.9027 21.8812 30.2887L21.7061 30.3356L21.8137 31.4057C22.1531 31.5918 22.611 31.7223 22.9997 31.7223C24.1577 31.7223 24.6726 31.0702 24.6726 30.4566C24.6726 29.6726 24.0229 29.406 23.4208 29.1589C22.9009 28.9456 22.4165 28.7468 22.4165 28.242C22.4165 27.8419 22.7857 27.6282 23.1748 27.6282C23.7981 27.6282 24.1381 27.963 24.2352 28.5488H24.4588L24.3905 27.6006C24.0115 27.4144 23.5933 27.3301 23.2826 27.3301C22.2126 27.3301 21.7746 27.9998 21.7746 28.5214C21.7746 29.3283 22.3898 29.5978 22.9573 29.8464C23.4433 30.0594 23.8945 30.257 23.8945 30.7638C23.8945 31.0891 23.6807 31.4245 23.1077 31.4245Z" fill="#1A1919"/>
<path d="M40.0525 31.0702C40.0525 31.2383 40.1589 31.2471 40.3238 31.2471C40.3813 31.2471 40.4454 31.245 40.5109 31.2428C40.5792 31.2406 40.6488 31.2383 40.7138 31.2383V31.4342C40.2953 31.4709 39.4973 31.6664 39.3122 31.7224L39.2637 31.694V30.9403C38.6807 31.396 38.2328 31.7224 37.5412 31.7224C37.0161 31.7224 36.4717 31.396 36.4717 30.6155V28.2329C36.4717 27.9907 36.4331 27.758 35.8891 27.7122V27.535C36.0833 27.5299 36.4082 27.5105 36.681 27.4943C36.9006 27.4813 37.0863 27.4702 37.1429 27.4702C37.2509 27.4702 37.2509 27.535 37.2509 27.74V30.1402C37.2509 30.4196 37.2509 31.219 38.0969 31.219C38.4271 31.219 38.8648 30.9777 39.2731 30.6525V28.149C39.2731 27.9801 38.8879 27.8802 38.5553 27.7939C38.5218 27.7852 38.4889 27.7766 38.4569 27.7682V27.6009C39.021 27.5643 39.4482 27.5205 39.7064 27.4941C39.8485 27.4795 39.9395 27.4702 39.974 27.4702C40.0525 27.4702 40.0525 27.535 40.0525 27.6377V31.0702Z" fill="#1A1919"/>
<path fill-rule="evenodd" clip-rule="evenodd" d="M43.4369 27.3299C42.902 27.3299 42.3765 27.6843 41.9876 27.9999V24.6047C41.9876 24.5301 41.968 24.4734 41.9101 24.4734C41.8887 24.4734 41.8424 24.4982 41.7779 24.5326C41.753 24.5459 41.7254 24.5606 41.6955 24.5759C41.4914 24.6884 41.0833 24.8555 40.6938 24.9763V25.1254C40.7067 25.1289 40.7194 25.1324 40.7317 25.1358C41.0735 25.2299 41.2099 25.2674 41.2099 25.8517V29.8518C41.2099 30.4196 41.1608 30.9593 41.0739 31.5081L41.2778 31.6101L41.5687 31.396C41.6067 31.4113 41.6474 31.4294 41.6917 31.449C41.9434 31.5604 42.3092 31.7224 42.9206 31.7224C44.3122 31.7224 45.2464 30.503 45.2464 29.2846C45.2464 28.2707 44.5655 27.3299 43.4369 27.3299ZM42.9895 31.4801C42.338 31.4801 41.9876 30.8841 41.9876 30.5308V28.2706C42.2501 28.0564 42.551 27.8327 42.9124 27.8327C43.6709 27.8327 44.4677 28.67 44.4677 29.6745C44.4677 30.503 44.0301 31.4801 42.9895 31.4801Z" fill="#1A1919"/>
<path d="M8.97826 37.1661C8.88202 37.1661 8.75135 37.1618 8.61061 37.1572C8.44636 37.1518 8.26836 37.146 8.11537 37.146C7.93979 37.146 7.74809 37.1521 7.5767 37.1576C7.43813 37.1621 7.31282 37.1661 7.22003 37.1661H7.19739V36.9704H7.321C7.6127 36.9639 7.72991 36.9603 7.73652 36.5676V33.8853H6.89206C6.52167 33.8924 6.50887 33.9487 6.43579 34.2703C6.43152 34.2891 6.42703 34.3088 6.42225 34.3295L6.41845 34.3468H6.2145L6.2173 34.3205C6.22364 34.2792 6.23042 34.2377 6.23723 34.1961C6.25368 34.0956 6.2703 33.994 6.28121 33.8901C6.30325 33.7496 6.31327 33.6092 6.31327 33.4641V33.4417H6.48136L6.48536 33.4576C6.52083 33.5845 6.61791 33.5861 6.75179 33.5884L6.75403 33.5885H9.51137C9.65883 33.5862 9.76621 33.5842 9.77523 33.4518L9.77703 33.4279L9.80107 33.4325L9.95073 33.4551L9.94692 33.4775C9.92589 33.6134 9.90525 33.7496 9.88922 33.8853C9.87941 34.021 9.87941 34.157 9.87941 34.2939V34.3092L9.86398 34.3151L9.67666 34.3807L9.67546 34.3514L9.67536 34.3501C9.66074 34.1597 9.63968 33.8853 9.30582 33.8853H8.46096V36.5571C8.46617 36.9388 8.62445 36.9656 8.87688 36.9704H9.00069V37.1661H8.97826Z" fill="#1A1919"/>
<path d="M1.63742 37.1661C1.51031 37.1661 1.36825 37.1611 1.22516 37.1561C1.08003 37.151 0.933846 37.1458 0.801179 37.1458C0.664519 37.1458 0.513306 37.1515 0.370426 37.1568C0.242469 37.1616 0.121195 37.1661 0.0230397 37.1661H0V36.9705H0.096967C0.289098 36.9661 0.463799 36.9513 0.465401 36.7039V34.0517C0.463799 33.8039 0.289098 33.7878 0.096967 33.7845H0V33.5885H0.0230397C0.121214 33.5885 0.24386 33.5929 0.37324 33.5976C0.517651 33.6027 0.670464 33.6082 0.806989 33.6082C0.940285 33.6082 1.08735 33.6032 1.23254 33.5982C1.3741 33.5933 1.51389 33.5885 1.63742 33.5885H1.66106V33.7845H1.56369C1.37136 33.7878 1.19566 33.8039 1.19466 34.0517V36.7039C1.19566 36.9513 1.37136 36.9661 1.56369 36.9705H1.66106V37.1661H1.63742Z" fill="#1A1919"/>
<path d="M5.57963 37.2418L5.36165 37.2347L2.67563 34.3711V36.4004C2.68204 36.8405 2.75196 36.9657 3.15044 36.9705H3.26384V37.1661H3.2404C3.1255 37.1661 3.0109 37.161 2.89671 37.1559H2.89661C2.78325 37.1509 2.67029 37.1458 2.55782 37.1458C2.43971 37.1458 2.32005 37.1509 2.20005 37.1559H2.19976C2.07906 37.161 1.95799 37.1661 1.83778 37.1661H1.81454V36.9705H1.91231C2.26211 36.9685 2.36209 36.7535 2.36589 36.3503V34.2182C2.36489 33.9486 2.13369 33.7845 1.9073 33.7845H1.81454V33.5885H1.83778C1.93944 33.5885 2.04231 33.5935 2.14469 33.5984C2.2461 33.6034 2.34703 33.6082 2.44583 33.6082C2.51036 33.6082 2.57406 33.6049 2.63902 33.6016C2.73296 33.5967 2.82953 33.5917 2.93507 33.5964L5.26108 36.1008V34.2387C5.25847 33.8367 4.97759 33.7878 4.82352 33.7845H4.68348V33.5885H4.70692C4.83229 33.5885 4.95605 33.5935 5.07945 33.5984C5.20217 33.6033 5.32453 33.6082 5.4478 33.6082C5.55506 33.6082 5.66272 33.6033 5.7708 33.5984C5.87974 33.5935 5.9891 33.5885 6.09892 33.5885H6.12216V33.7845H6.02018C5.80161 33.7899 5.57742 33.8083 5.57101 34.4054V36.7089C5.57101 36.8861 5.57682 37.0628 5.60226 37.2165L5.60707 37.2418H5.57963Z" fill="#1A1919"/>
<path d="M12.3274 37.1569C12.0556 37.1512 11.7589 37.145 11.5016 37.145C11.2362 37.145 10.9235 37.1516 10.6463 37.1574C10.4256 37.162 10.2274 37.1661 10.0934 37.1661H10.0712V36.9705H10.1679C10.3594 36.9674 10.5337 36.9513 10.5362 36.7039V34.0517C10.5337 33.8043 10.3594 33.7878 10.1679 33.7845H10.0712V33.5885H10.0934C10.2423 33.5885 10.4394 33.5927 10.6521 33.5972C10.9012 33.6025 11.1716 33.6082 11.4109 33.6082C11.6451 33.6082 11.9082 33.6028 12.1575 33.5976C12.3819 33.5929 12.5951 33.5885 12.7658 33.5885H12.7892L12.7884 33.6119C12.785 33.6876 12.7828 33.7776 12.7828 33.8729C12.7828 34.0478 12.7884 34.2397 12.7988 34.3838L12.7999 34.4018L12.782 34.407L12.5959 34.4535L12.5951 34.4275C12.5638 34.099 12.5178 33.86 11.9728 33.8551H11.2594L11.259 35.1373H11.8664C12.1716 35.1342 12.2261 34.9851 12.2621 34.7121L12.2633 34.6917H12.4669L12.4665 34.7149C12.4563 34.9127 12.45 35.1095 12.45 35.3067C12.45 35.4981 12.4563 35.6903 12.4665 35.8827L12.4669 35.9011L12.4476 35.9054L12.2633 35.9404L12.2621 35.9167C12.2604 35.9022 12.2588 35.888 12.2572 35.8742C12.2245 35.5921 12.2066 35.438 11.8719 35.4345H11.2594V36.5922C11.2602 36.8969 11.532 36.8982 11.8722 36.8999L11.8825 36.8999C12.5198 36.8963 12.775 36.8664 12.9345 36.2986L12.9399 36.2781L12.9621 36.2815L13.1318 36.3237L13.127 36.3446C13.0583 36.6125 12.9952 36.8802 12.9473 37.1481L12.9433 37.1661H12.9251C12.7695 37.1661 12.5573 37.1617 12.3274 37.1569Z" fill="#1A1919"/>
<path fill-rule="evenodd" clip-rule="evenodd" d="M16.963 37.1661C16.8738 37.1661 16.787 37.161 16.7005 37.1559C16.6149 37.1508 16.5298 37.1458 16.4431 37.1458C16.3781 37.1458 16.3118 37.1491 16.2437 37.1525C16.1429 37.1575 16.0383 37.1627 15.9282 37.1577C15.5221 36.6479 15.1741 36.1045 14.8323 35.5265H14.5196V36.5868C14.5253 36.9618 14.6799 36.9651 14.9178 36.9702L14.9297 36.9705H15.0485V37.1661H15.0251C14.8735 37.1661 14.7206 37.161 14.5681 37.1559H14.5679C14.4162 37.1509 14.2647 37.1458 14.1151 37.1458C13.9903 37.1458 13.8665 37.1508 13.7411 37.1558C13.6126 37.1609 13.4824 37.1661 13.3478 37.1661H13.3248V36.9705H13.4434C13.6337 36.9691 13.7946 36.8898 13.7954 36.7196V34.1467C13.7914 33.7948 13.6147 33.7896 13.453 33.7848L13.4434 33.7845H13.3248V33.5885H13.3478C13.42 33.5885 13.5198 33.592 13.6353 33.5961C13.7938 33.6016 13.9819 33.6082 14.1686 33.6082C14.3311 33.6082 14.4771 33.603 14.619 33.598C14.753 33.5932 14.8834 33.5885 15.0205 33.5885C15.6878 33.5898 16.3019 33.7656 16.3035 34.5011C16.3035 34.9579 15.9877 35.2435 15.5796 35.4027L16.4684 36.6763C16.6164 36.8863 16.7086 36.9388 16.966 36.9705L16.9853 36.9733V37.1661H16.963ZM14.7556 35.2998C15.2795 35.2948 15.5436 35.121 15.5488 34.5328C15.5456 34.0905 15.2585 33.8161 14.7975 33.8142C14.6873 33.8142 14.622 33.8217 14.5668 33.8281C14.5505 33.83 14.535 33.8317 14.5196 33.8332V35.2998H14.7556Z" fill="#1A1919"/>
<path d="M20.8627 37.2418L20.6454 37.2347L17.9589 34.3715V36.4002C17.9651 36.8411 18.0349 36.9657 18.4339 36.9705H18.5461V37.1661H18.5231C18.4085 37.1661 18.2942 37.1608 18.1802 37.1555C18.0667 37.1503 17.9535 37.145 17.8403 37.145C17.7225 37.145 17.6026 37.1503 17.4824 37.1555C17.3616 37.1608 17.2406 37.1661 17.1211 37.1661H17.0974V36.9705H17.1948C17.5444 36.9691 17.6446 36.7535 17.648 36.3492V34.2174C17.6474 33.9476 17.4166 33.7845 17.1902 33.7845H17.0974V33.5885H17.1211C17.2225 33.5885 17.3251 33.5935 17.4274 33.5984C17.5291 33.6033 17.6306 33.6082 17.7301 33.6082C17.7953 33.6082 17.86 33.6048 17.9263 33.6012C18.0182 33.5963 18.1132 33.5912 18.2164 33.595L20.5432 36.1008V34.2387C20.5418 33.8367 20.2599 33.7868 20.106 33.7845H19.9664V33.5885H19.9894C20.1148 33.5885 20.2386 33.5935 20.3621 33.5984C20.485 33.6033 20.6075 33.6082 20.7309 33.6082C20.8384 33.6082 20.9461 33.6033 21.0542 33.5984C21.1629 33.5935 21.272 33.5885 21.3814 33.5885H21.4049V33.7845H21.3027C21.0843 33.7895 20.8593 33.8083 20.8541 34.4054V36.7089C20.8541 36.8861 20.8587 37.0617 20.8858 37.2169L20.8884 37.2418H20.8627Z" fill="#1A1919"/>
<path fill-rule="evenodd" clip-rule="evenodd" d="M24.9728 37.1628C24.7614 37.1539 24.5482 37.145 24.3245 37.145C24.1004 37.145 23.8728 37.1534 23.6409 37.162C23.6044 37.1634 23.5677 37.1648 23.5309 37.1661L23.5065 37.1672V36.9695H23.588C23.7106 36.9695 23.8925 36.9432 23.8929 36.8457C23.8941 36.788 23.8466 36.6493 23.7883 36.4883L23.5868 35.9155H22.4194L22.2547 36.4271C22.2363 36.4867 22.2165 36.5416 22.1986 36.5915C22.1647 36.6856 22.1375 36.7615 22.1381 36.8154C22.1399 36.939 22.3375 36.9695 22.5132 36.9695H22.5945V37.1672L22.5705 37.1661C22.5482 37.1651 22.5259 37.164 22.5036 37.163L22.5026 37.1629C22.3129 37.154 22.1203 37.145 21.9312 37.145C21.7638 37.145 21.5945 37.1539 21.4263 37.1627C21.4046 37.1638 21.383 37.165 21.3614 37.1661L21.3367 37.1672V36.9695H21.3916C21.5884 36.9691 21.7526 36.8616 21.8292 36.656L22.6768 34.3322C22.6847 34.3107 22.6928 34.2884 22.7013 34.2655L22.7014 34.265C22.7666 34.0874 22.8466 33.8697 22.887 33.6906C23.0531 33.6368 23.266 33.5346 23.3676 33.4735C23.3699 33.4727 23.3722 33.4719 23.3745 33.4711C23.3871 33.4667 23.4003 33.462 23.4183 33.462C23.4313 33.4612 23.4598 33.4645 23.477 33.4909C23.492 33.5325 23.5089 33.5779 23.5249 33.6187L24.4994 36.2666C24.506 36.2855 24.5127 36.3046 24.5194 36.3237L24.5205 36.327C24.5761 36.4856 24.6328 36.6478 24.6943 36.7809C24.7556 36.9158 24.8528 36.9691 25.0229 36.9695H25.0764V37.1672L25.0529 37.1661L24.9728 37.1628ZM22.5342 35.5882H23.4608L23.0002 34.2316L22.5342 35.5882Z" fill="#1A1919"/>
<path d="M27.3725 37.1661C27.2767 37.1661 27.1462 37.1618 27.0055 37.1572C26.8409 37.1518 26.6624 37.146 26.509 37.146C26.3344 37.146 26.143 37.1521 25.9718 37.1576C25.8332 37.1621 25.7077 37.1661 25.6149 37.1661H25.5915V36.9704H25.7155C26.0074 36.9639 26.1244 36.9603 26.1314 36.5676L26.131 33.8853H25.2871C24.9165 33.8915 24.9036 33.9485 24.8306 34.2698L24.8305 34.2703C24.8262 34.2891 24.8217 34.3088 24.8169 34.3295L24.8131 34.3468H24.6088L24.612 34.3217C24.6176 34.2854 24.6236 34.2491 24.6295 34.2128C24.6468 34.1066 24.6642 33.9999 24.6757 33.8912C24.6973 33.7496 24.7071 33.6092 24.7071 33.4641V33.4417H24.8752L24.8796 33.4576C24.9165 33.5845 25.012 33.5861 25.1463 33.5884L25.1485 33.5885H27.907C28.0535 33.5862 28.1603 33.5842 28.1697 33.4522L28.1705 33.4279L28.1951 33.4325L28.3454 33.4551L28.3418 33.4775C28.32 33.6134 28.2999 33.7496 28.2839 33.8853C28.2731 34.021 28.2731 34.1572 28.2731 34.2939V34.3092L28.2576 34.3151L28.0703 34.3807L28.0695 34.3514C28.0557 34.1609 28.0347 33.8853 27.7001 33.8853H26.855V36.5571C26.8604 36.9388 27.0189 36.9656 27.2711 36.9704H27.3946V37.1661H27.3725Z" fill="#1A1919"/>
<path d="M30.1293 37.1661C30.0024 37.1661 29.8605 37.1609 29.7176 37.1557C29.5723 37.1504 29.4259 37.145 29.2929 37.145C29.156 37.145 29.0043 37.1509 28.8611 37.1565C28.7332 37.1614 28.6121 37.1661 28.5145 37.1661H28.4919V36.9705H28.5888C28.7796 36.9674 28.9555 36.9513 28.9567 36.7039V34.0517C28.9555 33.8043 28.7796 33.7878 28.5888 33.7845H28.4919V33.5885H28.5145C28.6122 33.5885 28.7349 33.5929 28.8642 33.5976C29.0086 33.6027 29.1613 33.6082 29.2971 33.6082C29.4307 33.6082 29.578 33.6032 29.7235 33.5982C29.8654 33.5933 30.0055 33.5885 30.1293 33.5885H30.1513V33.7845H30.0552C29.8614 33.7878 29.6873 33.8043 29.6855 34.0517V36.7039C29.6873 36.9513 29.8614 36.9674 30.0552 36.9705H30.1513V37.1661H30.1293Z" fill="#1A1919"/>
<path fill-rule="evenodd" clip-rule="evenodd" d="M30.2637 35.4027C30.2659 34.338 31.1276 33.5143 32.2395 33.5126C33.3759 33.5137 34.2881 34.1892 34.2901 35.2812C34.2889 36.4578 33.4049 37.2399 32.2672 37.2418C31.135 37.2399 30.2659 36.5034 30.2637 35.4027ZM32.3199 36.9754C33.3262 36.9747 33.5011 36.1313 33.5027 35.3931C33.5027 34.6597 33.0898 33.7809 32.2295 33.7796C31.3215 33.7805 31.0533 34.5509 31.0509 35.2252C31.0513 36.1271 31.4816 36.9741 32.3199 36.9754Z" fill="#1A1919"/>
<path fill-rule="evenodd" clip-rule="evenodd" d="M35.0075 33.6082C35.0613 33.6082 35.1146 33.6059 35.1686 33.6032L35.5003 33.6009L37.8217 36.1008V34.2387C37.8199 33.8367 37.538 33.7878 37.3836 33.7845H37.2441V33.5887L37.2757 33.5885C37.3978 33.5887 37.5188 33.5936 37.6396 33.5984C37.7623 33.6033 37.8848 33.6082 38.0078 33.6082C38.1157 33.6082 38.2234 33.6033 38.3315 33.5984C38.4405 33.5935 38.5499 33.5885 38.6602 33.5885H38.6826V33.7845H38.5804C38.3622 33.7899 38.137 33.8091 38.1326 34.4054V36.7089C38.1326 36.8861 38.1368 37.0628 38.1625 37.2169L38.1671 37.2418H38.1417L37.9227 37.2347L35.2367 34.3715V36.4004C35.2429 36.8411 35.3128 36.9651 35.7103 36.9695H35.8243V37.1661H35.8018C35.6869 37.1661 35.5724 37.161 35.4583 37.1559C35.3449 37.1509 35.2319 37.1458 35.1191 37.1458C35.0008 37.1458 34.8809 37.1509 34.7607 37.1559C34.6398 37.161 34.5186 37.1661 34.3982 37.1661H34.3766V36.9695H34.4729C34.8217 36.9685 34.9223 36.7535 34.9265 36.3503V34.2174C34.9263 33.9476 34.6949 33.7845 34.4675 33.7845H34.3766V33.5885H34.3989C34.5005 33.5885 34.603 33.5935 34.7051 33.5984C34.8067 33.6033 34.9079 33.6082 35.0075 33.6082ZM37.4229 33.7417C37.48 33.7458 37.5485 33.7585 37.6145 33.7884C37.5492 33.7576 37.4804 33.7453 37.4229 33.7417ZM38.3114 33.7978C38.3804 33.7551 38.4599 33.7436 38.5382 33.7411C38.4611 33.7444 38.3817 33.7571 38.3114 33.7978ZM34.421 37.1227V37.1224C34.4849 37.1221 34.5492 37.1204 34.6136 37.1182C34.5491 37.1205 34.4848 37.1222 34.421 37.1227ZM35.7786 37.1227C35.6953 37.1221 35.6121 37.119 35.5288 37.1155C35.612 37.119 35.6953 37.1219 35.7786 37.1224V37.1227Z" fill="#1A1919"/>
<path d="M37.2441 33.5887V33.5885H37.2684L37.2441 33.5887Z" fill="#1A1919"/>
<path d="M35.5003 33.6009L35.1686 33.6032C35.1932 33.6018 35.2177 33.6002 35.2423 33.5986C35.3203 33.5935 35.3985 33.5885 35.4784 33.5885L35.4852 33.5959C35.4889 33.5961 35.4925 33.5962 35.4961 33.5964L35.5003 33.6009Z" fill="#1A1919"/>
<path fill-rule="evenodd" clip-rule="evenodd" d="M42.3305 37.1661C42.2913 37.1646 42.2521 37.163 42.2128 37.1615C42.0134 37.1536 41.8128 37.1457 41.6018 37.1457C41.3905 37.1457 41.1744 37.1533 40.9551 37.161C40.9065 37.1627 40.8576 37.1644 40.8087 37.1661L40.7852 37.1672V36.9704H40.8658C40.9888 36.9704 41.1711 36.9432 41.1713 36.8456C41.1727 36.788 41.1248 36.6498 41.0653 36.4882L40.8646 35.9155H39.6961L39.5327 36.4271C39.5143 36.4868 39.4949 36.5417 39.4773 36.5913C39.4438 36.6857 39.4171 36.7612 39.4175 36.815C39.4175 36.939 39.616 36.9704 39.7909 36.9704H39.8718V37.1672L39.848 37.1661C39.8148 37.1646 39.7814 37.1632 39.7479 37.1617C39.5686 37.1538 39.3867 37.1457 39.2091 37.1457C39.052 37.1457 38.8948 37.1535 38.737 37.1613C38.7042 37.1629 38.6714 37.1645 38.6385 37.1661L38.6155 37.1672V36.9704H38.6686C38.8659 36.9694 39.031 36.8614 39.1085 36.6559L39.955 34.3322C39.9631 34.3099 39.9715 34.2867 39.9802 34.2628C40.0449 34.0856 40.124 33.869 40.165 33.6913C40.3312 33.6362 40.5438 33.5346 40.6468 33.4735L40.6499 33.4723C40.6627 33.4676 40.6769 33.4623 40.6969 33.4623C40.7105 33.4612 40.7383 33.4644 40.7546 33.492C40.7615 33.5092 40.7683 33.5275 40.7752 33.546L40.7752 33.5461L40.7753 33.5462L40.7753 33.5464C40.7844 33.5708 40.7937 33.5956 40.8035 33.6187L41.7767 36.2665C41.788 36.2979 41.7993 36.3296 41.8105 36.3613L41.8108 36.3622L41.8113 36.3635L41.8113 36.3636C41.8635 36.5104 41.916 36.6582 41.9723 36.7818C42.0346 36.9158 42.1303 36.9691 42.2996 36.9704H42.3543V37.1672L42.3305 37.1661ZM39.8125 35.5881H40.7385L40.2781 34.2323L39.8125 35.5881Z" fill="#1A1919"/>
<path d="M45.3114 37.1661C45.0777 37.1661 44.8441 37.161 44.6109 37.1559C44.3783 37.1509 44.146 37.1458 43.9142 37.1458C43.6816 37.1458 43.4489 37.1509 43.216 37.156C42.9829 37.161 42.7496 37.1661 42.516 37.1661H42.4938V36.9705H42.5904C42.7817 36.9661 42.9634 36.9532 42.9656 36.6535V34.0507C42.9634 33.8043 42.7825 33.7878 42.5904 33.7845H42.4938V33.5885H42.516C42.6573 33.5885 42.797 33.5935 42.9363 33.5984C43.075 33.6033 43.2133 33.6082 43.3525 33.6082C43.4868 33.6082 43.6197 33.6033 43.753 33.5984C43.887 33.5935 44.0214 33.5885 44.1581 33.5885H44.1793V33.7845H44.025C44.0161 33.7848 44.0074 33.7849 43.9987 33.7851C43.8088 33.7893 43.6921 33.7918 43.6876 34.0362V36.6479C43.689 36.8373 43.8187 36.8879 43.9842 36.9105C44.0773 36.9166 44.1759 36.9199 44.2777 36.9199C44.4071 36.9199 44.5415 36.9141 44.6784 36.9003C44.8939 36.8758 45.0794 36.7566 45.171 36.6359C45.2527 36.5276 45.2988 36.3889 45.3309 36.2787L45.3353 36.262H45.5348L45.5302 36.2886C45.495 36.4587 45.4553 36.6264 45.4155 36.7944L45.4155 36.7946C45.3876 36.9124 45.3597 37.0302 45.3333 37.1491L45.3291 37.1661H45.3114Z" fill="#1A1919"/>
<path fill-rule="evenodd" clip-rule="evenodd" d="M45.1654 34.2565V34.2824H45.4346V34.2565C45.4285 34.2557 45.4228 34.2549 45.4176 34.2542C45.3639 34.2471 45.3533 34.2457 45.3533 34.214V34.0373H45.415C45.446 34.0799 45.4718 34.1192 45.4942 34.1533C45.5457 34.2316 45.579 34.2824 45.6153 34.2824H45.7237V34.2655C45.6925 34.2471 45.6438 34.195 45.6011 34.1398L45.5094 34.0175C45.5867 33.9947 45.6412 33.9359 45.6412 33.8568C45.6412 33.7598 45.5508 33.7149 45.4529 33.7149H45.1676V33.7422C45.2405 33.7391 45.2463 33.7583 45.2463 33.8138V34.209C45.2463 34.2457 45.2354 34.2471 45.1806 34.2545C45.1758 34.2551 45.1708 34.2558 45.1654 34.2565ZM45.419 34.0013H45.3533V33.7504H45.4154C45.4729 33.7504 45.5242 33.7805 45.5242 33.8652C45.5242 33.9493 45.4909 34.0013 45.419 34.0013Z" fill="#1A1919"/>
<path fill-rule="evenodd" clip-rule="evenodd" d="M46 34.0012C46 33.7015 45.7618 33.467 45.4424 33.467C45.1239 33.467 44.8853 33.7015 44.8853 34.0012C44.8853 34.3008 45.1239 34.5328 45.4424 34.5328C45.7618 34.5328 46 34.3008 46 34.0012ZM45.8834 34.0013C45.8834 34.2305 45.6925 34.4338 45.4424 34.4338C45.1916 34.4338 45.0009 34.2305 45.0009 34.0013C45.0009 33.7717 45.1916 33.5668 45.4424 33.5668C45.6947 33.5668 45.8834 33.7717 45.8834 34.0013Z" fill="#1A1919"/>
<path fill-rule="evenodd" clip-rule="evenodd" d="M12.3848 15.7373C12.3848 11.0018 16.3981 7.16301 21.3486 7.16301C26.2993 7.16301 30.3126 11.0018 30.3126 15.7373C30.3126 20.4728 26.2993 24.3118 21.3486 24.3118C16.3981 24.3118 12.3848 20.4728 12.3848 15.7373Z" fill="#FFFFFE"/>
<path fill-rule="evenodd" clip-rule="evenodd" d="M26.7689 15.5685C26.7653 13.3727 25.3305 11.5001 23.3086 10.7585V20.3781C25.3305 19.6355 26.7653 17.7646 26.7689 15.5685ZM19.4515 20.3763V10.7595C17.4315 11.5034 15.9988 13.3734 15.9934 15.5685C15.9988 17.7631 17.4315 19.6329 19.4515 20.3763ZM21.3811 7.43764C16.6866 7.43936 12.8833 11.0781 12.8825 15.5685C12.8833 20.0583 16.6866 23.6965 21.3811 23.6972C26.0756 23.6965 29.8797 20.0583 29.8809 15.5685C29.8797 11.0781 26.0756 7.43936 21.3811 7.43764ZM21.3602 24.4646C16.2232 24.4879 11.9951 20.5071 11.9951 15.6613C11.9951 10.3653 16.2232 6.70217 21.3602 6.70313H23.7676C28.8439 6.70217 33.4769 10.3635 33.4769 15.6613C33.4769 20.5054 28.8439 24.4646 23.7676 24.4646H21.3602Z" fill="#0069AA"/>
</svg>
