<svg width="41" height="40" viewBox="0 0 41 40" fill="none" xmlns="http://www.w3.org/2000/svg">
<path d="M12.3953 34.9498V32.9182C12.4077 32.7474 12.3821 32.5759 12.3202 32.4153C12.2584 32.2547 12.1617 32.1087 12.0367 31.9869C11.9116 31.8652 11.7611 31.7705 11.5951 31.7092C11.429 31.6479 11.2514 31.6215 11.0739 31.6316C10.8416 31.617 10.6095 31.6627 10.4019 31.764C10.1942 31.8652 10.0185 32.0183 9.89304 32.2072C9.77876 32.0239 9.61529 31.8737 9.41984 31.7724C9.22438 31.6711 9.00419 31.6224 8.78245 31.6316C8.58917 31.6222 8.39671 31.6617 8.22411 31.746C8.05152 31.8303 7.90478 31.9566 7.79842 32.1124V31.7129H7.06738V34.9498H7.80543V33.1553C7.78946 33.0446 7.79915 32.9318 7.8338 32.8251C7.86845 32.7184 7.9272 32.6204 8.00583 32.5382C8.08445 32.456 8.18101 32.3916 8.28855 32.3496C8.39609 32.3076 8.51195 32.289 8.62781 32.2953C9.1128 32.2953 9.35885 32.6 9.35885 33.1485V34.9498H10.0969V33.1553C10.0821 33.0448 10.0927 32.9325 10.1278 32.8263C10.1629 32.7201 10.2217 32.6226 10.3 32.5406C10.3784 32.4587 10.4745 32.3942 10.5814 32.3518C10.6884 32.3095 10.8037 32.2902 10.9193 32.2953C11.4183 32.2953 11.6573 32.6 11.6573 33.1485V34.9498H12.3953ZM16.5143 33.3313V31.7129H15.7833V32.1056C15.6585 31.9507 15.497 31.8268 15.3124 31.7443C15.1277 31.6619 14.9252 31.6232 14.7219 31.6316C14.2689 31.653 13.8419 31.8414 13.5292 32.1578C13.2164 32.4743 13.042 32.8944 13.042 33.3314C13.042 33.7683 13.2164 34.1885 13.5292 34.5049C13.8419 34.8213 14.2689 35.0097 14.7219 35.0312C14.9252 35.0395 15.1277 35.0009 15.3124 34.9184C15.497 34.8359 15.6585 34.712 15.7833 34.5571V34.9498H16.5143V33.3313ZM13.7941 33.3313C13.8055 33.1403 13.8746 32.9567 13.993 32.8031C14.1113 32.6495 14.2738 32.5326 14.4603 32.4668C14.6468 32.4011 14.8492 32.3894 15.0425 32.4332C15.2358 32.4769 15.4116 32.5743 15.5482 32.7131C15.6848 32.852 15.7762 33.0264 15.8112 33.2147C15.8462 33.403 15.8232 33.5971 15.745 33.773C15.6669 33.9489 15.537 34.0989 15.3715 34.2045C15.2059 34.3101 15.0118 34.3668 14.8133 34.3674C14.6741 34.3692 14.536 34.3432 14.4078 34.2911C14.2795 34.239 14.1639 34.1618 14.0681 34.0644C13.9724 33.9671 13.8986 33.8517 13.8515 33.7255C13.8043 33.5993 13.7848 33.4651 13.7941 33.3313ZM32.1561 31.6278C32.403 31.6255 32.6479 31.6697 32.8771 31.758C33.0908 31.8401 33.2857 31.9618 33.4507 32.1162C33.6131 32.2697 33.742 32.4531 33.8296 32.6553C34.0122 33.0888 34.0122 33.5738 33.8296 34.0073C33.742 34.2097 33.6132 34.393 33.4507 34.5465C33.2857 34.7009 33.0908 34.8226 32.8771 34.9047C32.4134 35.0784 31.8989 35.0784 31.4351 34.9047C31.2218 34.8229 31.0275 34.7011 30.8633 34.5465C30.7018 34.3926 30.5736 34.2093 30.4861 34.0073C30.3038 33.5738 30.3038 33.0889 30.4861 32.6553C30.5736 32.4534 30.7018 32.2702 30.8633 32.1162C31.0275 31.9616 31.2218 31.8399 31.4351 31.758C31.6644 31.6697 31.9093 31.6255 32.1561 31.6278ZM32.1561 32.2937C32.0132 32.2925 31.8713 32.3183 31.7387 32.3698C31.6137 32.4181 31.5003 32.4905 31.4054 32.5826C31.3099 32.6768 31.2347 32.7882 31.1843 32.9106C31.0767 33.1816 31.0767 33.4813 31.1843 33.7522C31.2347 33.8746 31.3099 33.986 31.4054 34.0801C31.5003 34.1722 31.6137 34.2447 31.7387 34.293C32.0071 34.3944 32.3053 34.3944 32.5736 34.293C32.699 34.2444 32.8129 34.172 32.9086 34.0801C33.005 33.9863 33.0808 33.8748 33.1315 33.7522C33.2391 33.4813 33.2391 33.1816 33.1315 32.9106C33.0808 32.788 33.005 32.6764 32.9086 32.5826C32.8129 32.4908 32.699 32.4184 32.5736 32.3698C32.441 32.3183 32.2991 32.2925 32.1561 32.2937ZM20.492 33.3313C20.485 32.3223 19.8383 31.6316 18.8965 31.6316C18.4406 31.6546 18.0116 31.8469 17.6997 32.1681C17.3877 32.4892 17.217 32.9143 17.2234 33.3542C17.2298 33.794 17.4127 34.2143 17.7338 34.527C18.0549 34.8397 18.4893 35.0203 18.9457 35.0311C19.4472 35.0481 19.9376 34.8866 20.3233 34.5774L19.9649 34.0559C19.6873 34.2702 19.3435 34.3894 18.9878 34.3945C18.7463 34.4141 18.5063 34.3424 18.3187 34.1945C18.1311 34.0466 18.0106 33.8342 17.9827 33.6022H20.478C20.485 33.5142 20.492 33.4262 20.492 33.3313ZM17.9897 33.0469C18.0026 32.8296 18.1032 32.6258 18.27 32.479C18.4368 32.3322 18.6566 32.2541 18.8824 32.2614C19.1032 32.2573 19.3167 32.3376 19.4761 32.4848C19.6355 32.6321 19.7279 32.8342 19.7329 33.0469H17.9897ZM23.5705 32.5391C23.2516 32.3623 22.8912 32.2667 22.5233 32.2614C22.1226 32.2614 21.8836 32.4036 21.8836 32.6407C21.8836 32.8574 22.1366 32.9182 22.453 32.9589L22.7974 33.0063C23.5284 33.1079 23.9712 33.4058 23.9712 33.9747C23.9712 34.5909 23.4089 35.0312 22.4389 35.0312C21.9197 35.045 21.4097 34.8977 20.9839 34.6112L21.3283 34.0627C21.6509 34.2932 22.0445 34.4124 22.4459 34.4013C22.9449 34.4013 23.2121 34.2592 23.2121 34.0085C23.2121 33.8257 23.0223 33.7241 22.6217 33.67L22.2772 33.6226C21.5252 33.521 21.1175 33.1959 21.1175 32.6677C21.1175 32.0243 21.6657 31.6316 22.5162 31.6316C22.9973 31.6156 23.4731 31.7331 23.8869 31.9702L23.5705 32.5391ZM27.0831 32.3562H25.8882V33.819C25.8882 34.144 26.0077 34.3607 26.3732 34.3607C26.6013 34.3534 26.8238 34.2905 27.0199 34.1779L27.2307 34.7806C26.9566 34.9452 26.6399 35.0321 26.317 35.0312C25.4524 35.0312 25.1502 34.5842 25.1502 33.8325V32.3562H24.4683V31.7129H25.1502L25.15 30.731H25.888L25.8882 31.7129H27.0831V32.3562ZM29.6129 31.6316C29.7903 31.6323 29.9662 31.6621 30.1331 31.7197L29.9082 32.3833C29.7629 32.3276 29.6077 32.3 29.4513 32.302C28.9733 32.302 28.7343 32.6 28.7343 33.1349V34.9498H28.0034V31.7129H28.7274V32.1056C28.817 31.9571 28.9466 31.8347 29.1025 31.7513C29.2584 31.6679 29.4347 31.6265 29.6129 31.6316ZM34.6738 34.4787C34.7192 34.4784 34.7643 34.487 34.8062 34.5039C34.8465 34.5201 34.8832 34.5436 34.9144 34.573C34.9453 34.6024 34.9701 34.6373 34.9873 34.6757C35.0049 34.7152 35.0139 34.7577 35.0139 34.8006C35.0139 34.8436 35.0049 34.8861 34.9873 34.9256C34.9699 34.9638 34.9452 34.9985 34.9144 35.0278C34.8831 35.0573 34.8464 35.0808 34.8062 35.0973C34.7643 35.1145 34.7193 35.1233 34.6738 35.123C34.6068 35.1236 34.5411 35.1053 34.4849 35.0702C34.4288 35.0351 34.3845 34.9848 34.3579 34.9256C34.3403 34.8861 34.3312 34.8436 34.3312 34.8006C34.3312 34.7577 34.3403 34.7152 34.3579 34.6757C34.375 34.6373 34.3996 34.6024 34.4304 34.573C34.4616 34.5434 34.4985 34.5199 34.539 34.5039C34.5817 34.4869 34.6275 34.4783 34.6738 34.4787ZM34.6738 35.0519C34.7085 35.0522 34.7428 35.0454 34.7746 35.0322C34.8052 35.0194 34.833 35.0012 34.8565 34.9785C34.8867 34.9495 34.9091 34.9138 34.9216 34.8745C34.9341 34.8352 34.9364 34.7936 34.9284 34.7532C34.9203 34.7129 34.902 34.6751 34.8752 34.6431C34.8484 34.6111 34.8139 34.586 34.7746 34.5699C34.7428 34.5568 34.7084 34.5502 34.6738 34.5505C34.6385 34.5502 34.6035 34.5568 34.5709 34.5699C34.5399 34.5822 34.5116 34.6003 34.4878 34.6231C34.4391 34.6704 34.4119 34.7342 34.4119 34.8008C34.4119 34.8674 34.4391 34.9312 34.4878 34.9785C34.5122 35.0019 34.5413 35.0205 34.5732 35.0331C34.6051 35.0457 34.6393 35.0521 34.6738 35.0519ZM34.6934 34.65C34.7264 34.6479 34.759 34.657 34.7857 34.6757C34.7963 34.6841 34.8048 34.6948 34.8104 34.707C34.816 34.7191 34.8186 34.7323 34.818 34.7455C34.8184 34.7569 34.8163 34.7682 34.8119 34.7787C34.8074 34.7893 34.8007 34.7988 34.7922 34.8067C34.7719 34.8241 34.7461 34.8346 34.7189 34.8363L34.8205 34.9492H34.741L34.6468 34.8371H34.6164V34.9492H34.5501V34.65H34.6934ZM34.6164 34.7061V34.7858H34.6927C34.7073 34.7865 34.7219 34.7831 34.7345 34.7759C34.7396 34.7726 34.7437 34.7681 34.7465 34.7627C34.7492 34.7574 34.7504 34.7515 34.75 34.7455C34.7503 34.7397 34.7491 34.7339 34.7464 34.7287C34.7436 34.7235 34.7395 34.7191 34.7345 34.7159C34.7218 34.7088 34.7073 34.7054 34.6927 34.7061H34.6164Z" fill="black"/>
<path d="M26.0436 7.00745H14.957V26.2019H26.0436V7.00745Z" fill="#7375CF"/>
<path d="M15.661 16.6047C15.6592 14.7561 16.094 12.9314 16.9324 11.2687C17.7709 9.60594 18.991 8.14876 20.5003 7.00746C18.6312 5.59198 16.3864 4.71172 14.0225 4.46729C11.6587 4.22285 9.27112 4.62409 7.13277 5.62517C4.99442 6.62624 3.19155 8.18674 1.93022 10.1283C0.668893 12.0699 0 14.3142 0 16.6047C0 18.8952 0.668893 21.1395 1.93022 23.0811C3.19155 25.0227 4.99442 26.5832 7.13277 27.5843C9.27112 28.5853 11.6587 28.9866 14.0225 28.7421C16.3864 28.4977 18.6312 27.6174 20.5003 26.202C18.991 25.0607 17.7709 23.6035 16.9324 21.9407C16.094 20.278 15.6592 18.4533 15.661 16.6047Z" fill="#EB001B"/>
<path d="M39.7915 24.169V23.776H39.956V23.696H39.5371V23.776H39.7016V24.169H39.7915ZM40.6047 24.169V23.6952H40.4763L40.3286 24.0211L40.1809 23.6952H40.0524V24.169H40.1431V23.8116L40.2816 24.1197H40.3756L40.5141 23.8108V24.169H40.6047Z" fill="#00A2E5"/>
<path d="M40.9997 16.6047C40.9998 18.8952 40.331 21.1395 39.0697 23.0811C37.8084 25.0226 36.0056 26.5831 33.8673 27.5842C31.729 28.5853 29.3415 28.9866 26.9777 28.7421C24.6138 28.4977 22.3691 27.6174 20.5 26.202C22.008 25.0595 23.2272 23.6021 24.0655 21.9396C24.9037 20.2771 25.3393 18.453 25.3393 16.6047C25.3393 14.7564 24.9037 12.9323 24.0655 11.2698C23.2272 9.60732 22.008 8.1499 20.5 7.00746C22.3691 5.59198 24.6138 4.71172 26.9777 4.46728C29.3415 4.22285 31.729 4.6241 33.8673 5.62519C36.0056 6.62627 37.8084 8.18678 39.0697 10.1284C40.331 12.0699 40.9998 14.3142 40.9997 16.6047Z" fill="#00A2E5"/>
</svg>
