<svg width="44" height="43" viewBox="0 0 44 43" fill="none" xmlns="http://www.w3.org/2000/svg">
<path d="M21.7859 14.5418L18.8464 27.7609H15.2907L18.2306 14.5418H21.7859ZM36.7441 23.0775L38.6154 18.1135L39.6923 23.0775H36.7441ZM40.7124 27.7609H44L41.1278 14.5418H38.0952C37.4118 14.5418 36.8356 14.923 36.5806 15.5108L31.2458 27.7609H34.9797L35.721 25.7867H40.2818L40.7124 27.7609ZM31.4309 23.4453C31.4464 19.9566 26.4169 19.7633 26.4506 18.2045C26.4615 17.7308 26.9313 17.2263 27.9581 17.0973C28.4672 17.0342 29.8721 16.9831 31.4646 17.6889L32.0874 14.8846C31.2322 14.587 30.1314 14.3004 28.7618 14.3004C25.247 14.3004 22.7745 16.0962 22.7547 18.6698C22.7321 20.5729 24.5209 21.634 25.8658 22.2679C27.2524 22.9158 27.717 23.3311 27.7102 23.91C27.7006 24.7969 26.6046 25.1897 25.5839 25.2046C23.7954 25.2313 22.7587 24.7395 21.9325 24.3691L21.2871 27.2671C22.1192 27.6334 23.6523 27.9521 25.2399 27.9684C28.9766 27.9684 31.4198 26.1937 31.4309 23.4453ZM16.7055 14.5418L10.9447 27.7609H7.18697L4.35187 17.2111C4.18001 16.5624 4.0301 16.3239 3.5074 16.0498C2.65242 15.6032 1.24105 15.1855 0 14.9256L0.0840772 14.5418H6.13386C6.90445 14.5418 7.59777 15.035 7.77427 15.8889L9.27188 23.539L12.9703 14.5418H16.7055Z" fill="#1434CB"/>
</svg>
