<svg width="43" height="45" viewBox="0 0 43 45" fill="none" xmlns="http://www.w3.org/2000/svg">
<path d="M7.85691 15.6536C7.35295 16.2777 6.54661 16.7699 5.74026 16.6996C5.63947 15.8558 6.03424 14.9592 6.49621 14.4054C7.00017 13.7637 7.88211 13.3066 8.59606 13.2715C8.68005 14.1505 8.35248 15.0119 7.85691 15.6536ZM8.58766 16.8666C7.42014 16.7963 6.42061 17.561 5.86625 17.561C5.30349 17.561 4.45515 16.9018 3.53122 16.9194C2.33011 16.9369 1.21299 17.6489 0.59983 18.7829C-0.66008 21.0507 0.272254 24.4085 1.49017 26.2544C2.08652 27.1686 2.80047 28.1707 3.74121 28.1355C4.63154 28.1003 4.98432 27.529 6.05944 27.529C7.14296 27.529 7.45374 28.1355 8.39447 28.1179C9.3688 28.1003 9.98196 27.2037 10.5783 26.2896C11.2587 25.2523 11.5358 24.2415 11.5526 24.1888C11.5358 24.1712 9.67118 23.424 9.65438 21.1738C9.63758 19.2927 11.1243 18.3961 11.1915 18.3434C10.3515 17.0424 9.04123 16.9018 8.58766 16.8666ZM15.3324 14.3175V28.0212H17.365V23.3361H20.1788C22.749 23.3361 24.5549 21.4902 24.5549 18.818C24.5549 16.1458 22.7826 14.3175 20.246 14.3175H15.3324ZM17.365 16.1107H19.7085C21.4723 16.1107 22.4803 17.0952 22.4803 18.8268C22.4803 20.5585 21.4723 21.5517 19.7001 21.5517H17.365V16.1107ZM28.2675 28.1267C29.5442 28.1267 30.7285 27.4499 31.266 26.3775H31.308V28.0212H33.1895V21.2001C33.1895 19.2224 31.6776 17.9478 29.351 17.9478C27.1923 17.9478 25.5964 19.2399 25.5376 21.0155H27.3687C27.5199 20.1717 28.2675 19.6179 29.2922 19.6179C30.5353 19.6179 31.2324 20.2244 31.2324 21.3408V22.0967L28.6958 22.2549C26.3356 22.4044 25.0589 23.4152 25.0589 25.1732C25.0589 26.9488 26.3776 28.1267 28.2675 28.1267ZM28.8134 26.5005C27.7299 26.5005 27.0411 25.9556 27.0411 25.1205C27.0411 24.2591 27.7047 23.758 28.973 23.6789L31.2324 23.5295V24.303C31.2324 25.5864 30.1909 26.5005 28.8134 26.5005ZM35.7009 31.7482C37.6832 31.7482 38.6155 30.9571 39.4303 28.5574L43 18.0797H40.9337L38.5399 26.1753H38.4979L36.1041 18.0797H33.979L37.4228 28.0564L37.238 28.6629C36.9272 29.6913 36.4233 30.0869 35.5245 30.0869C35.3649 30.0869 35.0542 30.0693 34.9282 30.0517V31.6955C35.0458 31.7306 35.5497 31.7482 35.7009 31.7482Z" fill="black"/>
</svg>
