<svg width="42" height="55" viewBox="0 0 42 55" fill="none" xmlns="http://www.w3.org/2000/svg">
<path d="M27.8255 47.1199C27.8255 50.179 29.5461 52.6588 31.6686 52.6588C33.791 52.6588 35.5116 50.179 35.5116 47.1199C35.5116 44.0608 33.791 41.581 31.6686 41.581H13.1591C12.2028 41.581 11.3921 40.5675 11.2569 39.2032M33.5901 33.2726H10.6691L7.64952 2.80841H2.8457M16.2964 8.34735H39.3547L35.5116 24.9642M20.1394 47.1199C20.1394 50.179 18.4188 52.6588 16.2964 52.6588C14.1739 52.6588 12.4533 50.179 12.4533 47.1199C12.4533 44.0608 14.1739 41.581 16.2964 41.581C18.4188 41.581 20.1394 44.0608 20.1394 47.1199Z" stroke="#F6F0BE" stroke-width="4.36334" stroke-linecap="round" stroke-linejoin="round"/>
</svg>
