<svg width="48" height="47" viewBox="0 0 48 47" fill="none" xmlns="http://www.w3.org/2000/svg">
<g clip-path="url(#clip0_2391_424)">
<path d="M36.8939 20.2835H34.2373C34.0559 20.2835 33.9013 20.4128 33.873 20.5885L32.7987 27.2578C32.7773 27.3894 32.8814 27.508 33.017 27.508H34.3802C34.5068 27.508 34.6152 27.4175 34.635 27.2943L34.9399 25.4038C34.9679 25.2278 35.1228 25.0985 35.3042 25.0985H36.1447C37.8948 25.0985 38.9042 24.2694 39.1683 22.6265C39.2876 21.9077 39.173 21.343 38.8293 20.9475C38.4521 20.5132 37.7829 20.2835 36.8939 20.2835ZM37.2003 22.7193C37.0555 23.6526 36.3272 23.6526 35.6227 23.6526H35.2223L35.5038 21.9096C35.5205 21.8043 35.613 21.7267 35.7221 21.7267H35.9058C36.3851 21.7267 36.838 21.7267 37.0718 21.9944C37.2112 22.1542 37.2536 22.3915 37.2003 22.7193Z" fill="#179BD7"/>
<path d="M44.8329 22.6893H43.5617C43.4525 22.6893 43.3597 22.7669 43.3434 22.8722L43.2871 23.2206L43.1978 23.0943C42.9224 22.703 42.3087 22.5721 41.6958 22.5721C40.2903 22.5721 39.0901 23.6146 38.8563 25.0768C38.7351 25.8062 38.9072 26.5037 39.3298 26.9901C39.7181 27.4373 40.272 27.6237 40.9319 27.6237C42.0644 27.6237 42.6925 26.9106 42.6925 26.9106L42.6358 27.2567C42.6144 27.389 42.7185 27.5077 42.8548 27.5077H44.0002C44.1816 27.5077 44.3361 27.3784 44.3645 27.2023L45.0523 22.9395C45.0733 22.8083 44.9692 22.6893 44.8329 22.6893ZM43.0599 25.1133C42.9379 25.8249 42.3604 26.3025 41.6248 26.3025C41.2562 26.3025 40.9602 26.1865 40.7707 25.9667C40.5827 25.7484 40.512 25.4377 40.5711 25.0916C40.6864 24.3862 41.2721 23.8929 41.9965 23.8929C42.3577 23.8929 42.6513 24.0104 42.8447 24.2322C43.0393 24.4562 43.1162 24.7688 43.0599 25.1133Z" fill="#179BD7"/>
<path d="M46.3332 20.4664L45.243 27.2578C45.2217 27.3894 45.3258 27.508 45.4613 27.508H46.5573C46.7395 27.508 46.8941 27.3787 46.922 27.2027L47.9971 20.5337C48.0185 20.4021 47.9144 20.2831 47.7788 20.2831H46.5515C46.4432 20.2835 46.3499 20.361 46.3332 20.4664Z" fill="#179BD7"/>
<path d="M17.9476 20.2835H15.2914C15.1096 20.2835 14.955 20.4128 14.9267 20.5885L13.8524 27.2578C13.831 27.3894 13.9351 27.508 14.0715 27.508H15.3396C15.5213 27.508 15.6759 27.3787 15.7043 27.2027L15.994 25.4038C16.022 25.2278 16.1769 25.0985 16.3583 25.0985H17.1992C18.9489 25.0985 19.9587 24.2694 20.2224 22.6265C20.3413 21.9077 20.2275 21.343 19.8838 20.9475C19.5062 20.5132 18.8366 20.2835 17.9476 20.2835ZM18.2541 22.7193C18.1088 23.6526 17.3806 23.6526 16.6764 23.6526H16.2756L16.5568 21.9096C16.5735 21.8043 16.6667 21.7267 16.7754 21.7267H16.9592C17.4388 21.7267 17.8913 21.7267 18.1251 21.9944C18.2645 22.1542 18.3073 22.3915 18.2541 22.7193Z" fill="#253B80"/>
<path d="M25.8873 22.6893H24.6153C24.5069 22.6893 24.4133 22.7669 24.3966 22.8722L24.3403 23.2206L24.2514 23.0943C23.976 22.703 23.362 22.5721 22.7491 22.5721C21.3435 22.5721 20.143 23.6146 19.9091 25.0768C19.7876 25.8062 19.9604 26.5037 20.383 26.9901C20.7706 27.4373 21.3252 27.6237 21.9851 27.6237C23.1177 27.6237 23.7457 26.9106 23.7457 26.9106L23.689 27.2567C23.6676 27.389 23.7717 27.5077 23.9073 27.5077H25.053C25.2352 27.5077 25.389 27.3784 25.4177 27.2023L26.1052 22.9395C26.1269 22.8083 26.0232 22.6893 25.8873 22.6893ZM24.1143 25.1133C23.9915 25.8249 23.4148 26.3025 22.6792 26.3025C22.3098 26.3025 22.0146 26.1865 21.8251 25.9667C21.6371 25.7484 21.5656 25.4377 21.6255 25.0916C21.74 24.3862 22.3265 23.8929 23.0509 23.8929C23.4121 23.8929 23.7057 24.0104 23.8991 24.2322C24.0929 24.4562 24.1698 24.7688 24.1143 25.1133Z" fill="#253B80"/>
<path d="M32.6617 22.6892H31.3835C31.2615 22.6892 31.147 22.7486 31.0778 22.8478L29.3149 25.3905L28.5676 22.9471C28.5206 22.7942 28.3766 22.6892 28.2134 22.6892H26.9574C26.8047 22.6892 26.6987 22.8353 26.7472 22.976L28.1552 27.0216L26.8315 28.8512C26.7274 28.9954 26.8323 29.1935 27.0121 29.1935H28.2888C28.41 29.1935 28.5234 29.1357 28.5921 29.0384L32.8435 23.0296C32.9452 22.8858 32.8407 22.6892 32.6617 22.6892Z" fill="#253B80"/>
<path d="M2.82209 28.8041L3.02522 27.5408L2.57274 27.5305H0.412109L1.91364 18.2082C1.9183 18.18 1.93344 18.1538 1.95558 18.1351C1.97772 18.1165 2.00607 18.1062 2.03559 18.1062H5.67872C6.88817 18.1062 7.72283 18.3527 8.15861 18.8391C8.3629 19.0673 8.49301 19.3057 8.55593 19.5681C8.62196 19.8435 8.62312 20.1724 8.55865 20.5736L8.55399 20.6029V20.86L8.75828 20.9733C8.93034 21.0627 9.06706 21.165 9.17192 21.2821C9.3467 21.4772 9.45972 21.7252 9.50749 22.0192C9.55682 22.3215 9.54051 22.6813 9.45972 23.0886C9.36651 23.5571 9.21581 23.9652 9.01229 24.2991C8.82509 24.6067 8.58661 24.8619 8.30348 25.0597C8.03315 25.2475 7.71195 25.3902 7.34881 25.4814C6.99692 25.5712 6.59571 25.6164 6.15566 25.6164H5.87214C5.6694 25.6164 5.47248 25.6879 5.3179 25.8161C5.16293 25.9469 5.0604 26.1257 5.02894 26.3211L5.00757 26.4348L4.6487 28.6615L4.63239 28.7433C4.62811 28.7691 4.62073 28.7821 4.60986 28.7908C4.60015 28.7988 4.58617 28.8041 4.57257 28.8041H2.82209Z" fill="#253B80"/>
<path d="M8.95149 20.6326C8.94062 20.7006 8.92819 20.7702 8.91421 20.8417C8.43377 23.257 6.79009 24.0914 4.69082 24.0914H3.62197C3.36524 24.0914 3.14891 24.274 3.1089 24.5219L2.56166 27.9203L2.40669 28.8836C2.38066 29.0464 2.50883 29.1932 2.67662 29.1932H4.57236C4.79686 29.1932 4.98756 29.0334 5.0229 28.8167L5.04154 28.7223L5.39848 26.5044L5.42139 26.3827C5.45635 26.1652 5.64744 26.0055 5.87193 26.0055H6.15545C7.99216 26.0055 9.42999 25.2753 9.85024 23.1623C10.0258 22.2797 9.93491 21.5426 9.47039 21.0243C9.32979 20.868 9.1554 20.7383 8.95149 20.6326Z" fill="#179BD7"/>
<path d="M8.44939 20.4363C8.37598 20.4154 8.30025 20.3964 8.22257 20.3793C8.1445 20.3626 8.06449 20.3477 7.98215 20.3348C7.69396 20.2892 7.3782 20.2675 7.03991 20.2675H4.18445C4.11415 20.2675 4.04734 20.2831 3.98753 20.3112C3.85587 20.3732 3.75799 20.4953 3.7343 20.6447L3.12685 24.412L3.10938 24.5219C3.14938 24.274 3.36571 24.0914 3.62244 24.0914H4.6913C6.79056 24.0914 8.43424 23.2567 8.91468 20.8417C8.92905 20.7702 8.94109 20.7006 8.95197 20.6326C8.8304 20.5694 8.69874 20.5154 8.55697 20.4694C8.52202 20.458 8.4859 20.447 8.44939 20.4363Z" fill="#222D65"/>
<path d="M3.73401 20.6447C3.7577 20.4953 3.85557 20.3732 3.98724 20.3116C4.04744 20.2835 4.11385 20.2679 4.18415 20.2679H7.03962C7.37791 20.2679 7.69367 20.2895 7.98186 20.3352C8.0642 20.3481 8.14421 20.3629 8.22227 20.3797C8.29995 20.3968 8.37569 20.4158 8.44909 20.4367C8.4856 20.4474 8.52172 20.4584 8.55707 20.4694C8.69883 20.5154 8.8305 20.5698 8.95206 20.6326C9.09499 19.74 8.9509 19.1323 8.45803 18.582C7.91467 17.9762 6.93397 17.7168 5.67908 17.7168H2.03595C1.77961 17.7168 1.56095 17.8993 1.52133 18.1477L0.00387959 27.5658C-0.0260267 27.7522 0.120786 27.9203 0.312652 27.9203H2.56184L3.12656 24.412L3.73401 20.6447Z" fill="#253B80"/>
</g>
<defs>
<clipPath id="clip0_2391_424">
<rect width="48" height="47" fill="white"/>
</clipPath>
</defs>
</svg>
